<svg xmlns="http://www.w3.org/2000/svg" width="16" height="16" fill="currentColor"><rect id="backgroundrect" width="100%" height="100%" x="0" y="0" fill="none" stroke="none"/>
  
  
<g class="currentLayer" style=""><title>Layer 1</title><path d="M14.5 3a.5.5 0 0 1 .5.5v9a.5.5 0 0 1-.5.5h-13a.5.5 0 0 1-.5-.5v-9a.5.5 0 0 1 .5-.5h13zm-13-1A1.5 1.5 0 0 0 0 3.5v9A1.5 1.5 0 0 0 1.5 14h13a1.5 1.5 0 0 0 1.5-1.5v-9A1.5 1.5 0 0 0 14.5 2h-13z" id="svg_1" class="" fill-opacity="1" fill="#066976"/><path d="M5 8a.5.5 0 0 1 .5-.5h7a.5.5 0 0 1 0 1h-7A.5.5 0 0 1 5 8zm0-2.5a.5.5 0 0 1 .5-.5h7a.5.5 0 0 1 0 1h-7a.5.5 0 0 1-.5-.5zm0 5a.5.5 0 0 1 .5-.5h7a.5.5 0 0 1 0 1h-7a.5.5 0 0 1-.5-.5zm-1-5a.5.5 0 1 1-1 0 .5.5 0 0 1 1 0zM4 8a.5.5 0 1 1-1 0 .5.5 0 0 1 1 0zm0 2.5a.5.5 0 1 1-1 0 .5.5 0 0 1 1 0z" id="svg_2" class=""/><path d="M5,8 a0.5,0.5 0 0 1 0.5,-0.5 h7 a0.5,0.5 0 0 1 0,1 h-7 A0.5,0.5 0 0 1 5,8 zm0,-2.5 a0.5,0.5 0 0 1 0.5,-0.5 h7 a0.5,0.5 0 0 1 0,1 h-7 a0.5,0.5 0 0 1 -0.5,-0.5 zm0,5 a0.5,0.5 0 0 1 0.5,-0.5 h7 a0.5,0.5 0 0 1 0,1 h-7 a0.5,0.5 0 0 1 -0.5,-0.5 zm-1,-5 a0.5,0.5 0 1 1 -1,0 a0.5,0.5 0 0 1 1,0 zM4,8 a0.5,0.5 0 1 1 -1,0 a0.5,0.5 0 0 1 1,0 zm0,2.5 a0.5,0.5 0 1 1 -1,0 a0.5,0.5 0 0 1 1,0 z" class="" id="svg_3" fill-opacity="1" fill="#066976"/></g></svg>