<svg xmlns="http://www.w3.org/2000/svg" width="16" height="16" fill="currentColor"><rect id="backgroundrect" width="100%" height="100%" x="0" y="0" fill="none" stroke="none"/>
  
  
<g class="currentLayer" style=""><title>Layer 1</title><path d="M11 6a3 3 0 1 1-6 0 3 3 0 0 1 6 0z" id="svg_1" class="" fill="#b6b6b6" fill-opacity="1"/><path fill-rule="evenodd" d="M0 8a8 8 0 1 1 16 0A8 8 0 0 1 0 8zm8-7a7 7 0 0 0-5.468 11.37C3.242 11.226 4.805 10 8 10s4.757 1.225 5.468 2.37A7 7 0 0 0 8 1z" id="svg_2" class="" fill="#b6b6b6" fill-opacity="1"/></g></svg>