<svg xmlns="http://www.w3.org/2000/svg" width="16" height="16" fill="currentColor"><rect id="backgroundrect" width="100%" height="100%" x="0" y="0" fill="none" stroke="none"/>
  
<g class="currentLayer" style=""><title>Layer 1</title><path d="M12.561367348611356,15 C13.897367348611354,15 14.918367348611355,13.845 14.918367348611355,12.5 V5 H0.9183673486113548 v7.5 C0.9183673486113548,13.845 1.9393673486113547,15 3.275367348611355,15 h9.286 zM5.418367348611355,7 h5 a0.5,0.5 0 0 1 0,1 h-5 a0.5,0.5 0 0 1 0,-1 zM0.7183673486113549,1 a0.8,0.8 0 0 0 -0.8,0.8 V3 a0.8,0.8 0 0 0 0.8,0.8 h14.4 A0.8,0.8 0 0 0 15.918367348611355,3 V1.8 a0.8,0.8 0 0 0 -0.8,-0.8 H0.7183673486113549 z" id="svg_1" class="" fill="#ffffff" fill-opacity="1"/></g></svg>