<svg xmlns="http://www.w3.org/2000/svg" width="16" height="16" fill="currentColor"><rect id="backgroundrect" width="100%" height="100%" x="0" y="0" fill="none" stroke="none"/>
  
<g class="currentLayer" style=""><title>Layer 1</title><path fill-rule="evenodd" d="M2 0a2 2 0 0 0-2 2h16a2 2 0 0 0-2-2H2zM0 14V3h16v11a2 2 0 0 1-2 2H2a2 2 0 0 1-2-2zm12-8a1 1 0 1 0 2 0 1 1 0 0 0-2 0zM5 9a1 1 0 1 0 2 0 1 1 0 0 0-2 0zm5-2a1 1 0 1 1 0-2 1 1 0 0 1 0 2zM2 9a1 1 0 1 0 2 0 1 1 0 0 0-2 0z" id="svg_1" class="selected" fill="#ffffff" fill-opacity="1"/></g></svg>