<svg xmlns="http://www.w3.org/2000/svg" width="16" height="16" fill="currentColor" style=""><rect id="backgroundrect" width="100%" height="100%" x="0" y="0" fill="none" stroke="none"/>
  
  
<g class="currentLayer" style=""><title>Layer 1</title><path d="M11,6 a3,3 0 1 1 -6,0 a3,3 0 0 1 6,0 z" id="svg_1" class="" fill="#ffffff" fill-opacity="1"/><path fill-rule="evenodd" d="M0,8 a8,8 0 1 1 16,0 A8,8 0 0 1 0,8 zm8,-7 a7,7 0 0 0 -5.468,11.37 C3.242,11.226 4.805,10 8,10 s4.757,1.225 5.468,2.37 A7,7 0 0 0 8,1 z" id="svg_2" class="" fill="#ffffff" fill-opacity="1"/></g></svg>